<?xml version="1.0" encoding="UTF-8"?>
<!DOCTYPE svg PUBLIC "-//W3C//DTD SVG 1.1//EN" "http://www.w3.org/Graphics/SVG/1.1/DTD/svg11.dtd">
<svg xmlns="http://www.w3.org/2000/svg" version="1.1" width="1092px" height="670px" style="shape-rendering:geometricPrecision; text-rendering:geometricPrecision; image-rendering:optimizeQuality; fill-rule:evenodd; clip-rule:evenodd" xmlns:xlink="http://www.w3.org/1999/xlink">
<g><path style="opacity:1" fill="#e82345" d="M 663.5,63.5 C 664.15,65.4352 664.483,67.4352 664.5,69.5C 668.884,69.8256 673.217,69.4922 677.5,68.5C 677.376,67.8933 677.043,67.56 676.5,67.5C 675.927,64.3833 677.094,62.3833 680,61.5C 685.016,62.5912 689.183,65.0912 692.5,69C 689.766,69.7183 689.1,71.2183 690.5,73.5C 701.934,85.001 713.934,85.501 726.5,75C 731.818,74.978 737.151,75.1447 742.5,75.5C 749.27,77.0747 756.27,77.7414 763.5,77.5C 763.511,79.0174 764.177,80.1841 765.5,81C 772.153,80.9621 778.487,82.2954 784.5,85C 801.332,95.9168 818.332,106.584 835.5,117C 837.736,123.263 840.903,129.096 845,134.5C 849.668,136.665 854.001,139.332 858,142.5C 858.861,148.585 858.527,154.585 857,160.5C 854.333,163.833 851.667,167.167 849,170.5C 847.749,174.082 846.749,177.749 846,181.5C 838.76,189.64 832.76,198.64 828,208.5C 824.859,215.196 823.859,222.196 825,229.5C 827.635,234.737 829.468,240.237 830.5,246C 830.385,248.732 829.552,251.232 828,253.5C 825.562,255.429 823.728,257.762 822.5,260.5C 823.685,263.599 826.018,264.932 829.5,264.5C 834.103,266.328 838.769,266.661 843.5,265.5C 850.462,265.946 857.462,266.113 864.5,266C 867.72,267.352 871.053,268.186 874.5,268.5C 881.499,271.609 888.832,273.943 896.5,275.5C 897.641,276.339 898.974,277.006 900.5,277.5C 901.187,279.555 902.354,281.221 904,282.5C 903.594,288.488 903.261,294.488 903,300.5C 904.406,303.409 906.572,305.409 909.5,306.5C 912.733,309.697 916.733,311.364 921.5,311.5C 925.285,313.266 929.285,314.766 933.5,316C 944.743,329.816 958.077,332.483 973.5,324C 975.923,322.429 977.256,320.263 977.5,317.5C 978.371,314.997 979.037,312.33 979.5,309.5C 980.621,307.341 982.455,306.007 985,305.5C 988.121,306.536 991.287,306.703 994.5,306C 995.168,295.468 1000.33,288.301 1010,284.5C 1010.83,284.667 1011.67,284.833 1012.5,285C 1014.46,287.748 1016.29,290.582 1018,293.5C 1021.3,295.795 1024.3,298.462 1027,301.5C 1027.53,305.859 1027.37,310.192 1026.5,314.5C 1025.93,322.104 1024.93,329.771 1023.5,337.5C 1021.55,338.716 1020.05,340.382 1019,342.5C 1019.33,347.5 1019.67,352.5 1020,357.5C 1014.26,361.647 1011.93,367.314 1013,374.5C 1007.16,380.702 1007.66,386.535 1014.5,392C 1017.75,393.036 1021.09,393.703 1024.5,394C 1026.77,395.558 1027.93,397.724 1028,400.5C 1029.33,407.805 1028.16,414.638 1024.5,421C 1023.23,421.309 1022.07,421.809 1021,422.5C 1019.99,421.663 1018.82,421.33 1017.5,421.5C 1010.53,418.898 1003.19,417.898 995.5,418.5C 992.301,414.215 987.968,411.381 982.5,410C 981.594,408.301 981.261,406.467 981.5,404.5C 982.152,403.551 982.486,402.385 982.5,401C 982.693,398.992 982.026,397.492 980.5,396.5C 977.482,394.537 974.149,394.037 970.5,395C 963.55,396.565 956.883,398.732 950.5,401.5C 948.411,405.501 947.078,409.835 946.5,414.5C 944.529,416.808 942.529,419.142 940.5,421.5C 939.883,421.611 939.383,421.944 939,422.5C 938.067,428.821 937.734,435.154 938,441.5C 938.383,442.056 938.883,442.389 939.5,442.5C 939.804,443.15 940.137,443.817 940.5,444.5C 936.205,448.446 936.538,451.946 941.5,455C 947.829,456.922 953.995,459.089 960,461.5C 960.458,464.558 960.124,467.558 959,470.5C 951.281,475.643 949.281,482.31 953,490.5C 957.408,495.073 961.241,500.073 964.5,505.5C 961.234,511.987 955.901,515.82 948.5,517C 946.527,517.495 944.527,517.662 942.5,517.5C 942.806,513.802 942.139,510.302 940.5,507C 936.321,503.154 932.488,498.988 929,494.5C 929.877,475.356 921.044,468.189 902.5,473C 896.513,476.244 890.346,479.077 884,481.5C 881.07,480.284 878.237,478.951 875.5,477.5C 870.711,479.864 869.378,483.531 871.5,488.5C 870.657,491.377 868.99,493.544 866.5,495C 857.833,495.667 849.167,495.667 840.5,495C 836.793,494.064 833.626,492.231 831,489.5C 829.333,485.5 827.667,481.5 826,477.5C 823.87,474.77 821.203,472.77 818,471.5C 817.785,459.138 817.118,446.805 816,434.5C 814.951,433.483 813.784,433.316 812.5,434C 809.594,436.735 806.928,439.568 804.5,442.5C 800.094,441.096 798.094,438.096 798.5,433.5C 783.328,430.15 774.995,436.317 773.5,452C 773.842,455.184 775.342,457.684 778,459.5C 776.979,466.38 777.813,473.047 780.5,479.5C 780.708,484.635 780.041,489.635 778.5,494.5C 774.404,502.18 770.904,510.18 768,518.5C 762.056,520.783 758.722,525.116 758,531.5C 753.763,535.036 749.263,538.202 744.5,541C 739.099,545.539 737.099,551.206 738.5,558C 738.135,560.261 737.469,562.427 736.5,564.5C 731.773,566.281 727.606,568.948 724,572.5C 723.462,577.066 724.296,581.399 726.5,585.5C 723.994,588.174 721.661,591.008 719.5,594C 721.852,598.042 724.018,602.209 726,606.5C 728.724,607.892 731.557,609.058 734.5,610C 735.894,611.739 736.561,613.739 736.5,616C 734.66,623.68 730.994,630.347 725.5,636C 720.552,636.188 715.885,635.022 711.5,632.5C 709.833,633.167 708.167,633.833 706.5,634.5C 706.167,633.833 705.833,633.167 705.5,632.5C 707.282,627.966 707.782,623.299 707,618.5C 704.871,612.244 702.204,606.244 699,600.5C 693.06,594.439 685.893,590.272 677.5,588C 682.167,580 686.833,572 691.5,564C 689.044,561.054 686.377,558.387 683.5,556C 679.833,555.667 676.167,555.333 672.5,555C 670.944,553.401 669.277,551.901 667.5,550.5C 665.483,551.174 663.817,552.341 662.5,554C 660.5,554.667 658.5,554.667 656.5,554C 651.961,551.231 647.294,548.731 642.5,546.5C 636.802,537.112 630.135,528.445 622.5,520.5C 617.724,518.635 613.224,516.302 609,513.5C 606.495,508.476 605.328,503.142 605.5,497.5C 606.491,492.956 607.491,488.289 608.5,483.5C 610.886,473.217 611.052,462.884 609,452.5C 607.336,448.916 604.503,447.249 600.5,447.5C 589.815,447.257 581.649,451.59 576,460.5C 575.888,462.757 576.388,464.924 577.5,467C 575.508,471.984 571.842,475.318 566.5,477C 562.545,482.623 558.212,487.957 553.5,493C 544.983,493.327 538.15,496.827 533,503.5C 532.293,505.081 531.46,506.581 530.5,508C 535.868,512.594 539.868,518.094 542.5,524.5C 543.019,529.242 543.019,533.908 542.5,538.5C 538.47,548.117 531.303,554.117 521,556.5C 519.638,562.404 518.638,568.404 518,574.5C 517.027,577.779 515.527,580.779 513.5,583.5C 507.397,585.893 501.064,587.726 494.5,589C 492.859,590.129 491.859,591.629 491.5,593.5C 489.603,595.698 488.603,598.364 488.5,601.5C 486.901,601.232 485.568,601.566 484.5,602.5C 483.659,604.379 483.325,606.379 483.5,608.5C 475.604,608.328 467.937,606.995 460.5,604.5C 458.476,605.021 456.476,605.188 454.5,605C 451.87,601.368 448.87,598.035 445.5,595C 437.443,592.111 429.277,589.611 421,587.5C 417.697,589.595 415.197,592.428 413.5,596C 405.007,597.913 397.673,601.913 391.5,608C 386.742,610.144 381.742,610.977 376.5,610.5C 373.024,609.357 369.358,609.19 365.5,610C 364.944,610.383 364.611,610.883 364.5,611.5C 355.882,616.053 346.715,619.053 337,620.5C 331.653,620.502 326.82,619.002 322.5,616C 320.037,612.535 317.204,609.369 314,606.5C 311.652,599.439 309.152,592.439 306.5,585.5C 302.177,581.008 298.01,576.341 294,571.5C 290.643,567.009 286.81,566.176 282.5,569C 281.056,569.781 279.723,569.614 278.5,568.5C 279.357,565.363 279.357,562.03 278.5,558.5C 284.285,553.346 283.619,549.179 276.5,546C 271.748,545.145 267.081,543.979 262.5,542.5C 261.923,540.894 261.59,539.228 261.5,537.5C 263.406,525.281 267.406,513.781 273.5,503C 271.223,496.717 267.39,491.55 262,487.5C 260.374,485.083 258.874,482.583 257.5,480C 259.969,476.187 262.469,472.354 265,468.5C 266.426,463.243 265.259,458.743 261.5,455C 256.892,453.515 252.226,452.348 247.5,451.5C 236.174,446.93 224.508,445.263 212.5,446.5C 209.126,446.674 205.793,447.174 202.5,448C 196.156,451.504 190.156,455.504 184.5,460C 179.322,461.798 173.989,462.798 168.5,463C 166.051,463.725 163.717,464.725 161.5,466C 154.235,472.582 148.569,480.249 144.5,489C 145.619,496.053 148.452,502.22 153,507.5C 154.085,506.707 155.252,506.04 156.5,505.5C 157.59,507.791 158.09,510.124 158,512.5C 153.068,517.435 147.568,521.601 141.5,525C 137.399,529.857 133.066,534.524 128.5,539C 126.726,539.97 124.893,540.804 123,541.5C 117.644,538.517 112.144,537.85 106.5,539.5C 103.041,539.531 99.7079,540.198 96.5,541.5C 95.7025,541.043 95.3691,540.376 95.5,539.5C 96.5941,537.388 97.5941,535.221 98.5,533C 94.7608,529.969 92.9274,526.136 93,521.5C 101.159,515.581 110.159,511.914 120,510.5C 121.179,504.565 122.179,498.565 123,492.5C 125.5,486.833 128,481.167 130.5,475.5C 129.608,472.716 128.442,470.05 127,467.5C 122.763,463.964 118.263,460.798 113.5,458C 115.028,456.352 115.695,454.352 115.5,452C 114.927,448.824 114.76,445.657 115,442.5C 120.22,433.893 126.053,425.726 132.5,418C 130.667,416.167 128.833,414.333 127,412.5C 126.333,410.833 126.333,409.167 127,407.5C 134.863,399.302 143.03,391.469 151.5,384C 157.642,379.205 164.309,375.205 171.5,372C 174.206,369.629 176.539,366.963 178.5,364C 182.873,362.287 186.707,359.787 190,356.5C 192.254,351.366 191.754,346.532 188.5,342C 190.86,334.961 193.193,327.961 195.5,321C 193.727,317.281 192.061,313.447 190.5,309.5C 191.668,306.161 192.834,302.828 194,299.5C 203.825,293.777 214.325,289.611 225.5,287C 229.217,283.615 233.217,280.615 237.5,278C 240.273,275.617 242.439,272.783 244,269.5C 244.291,267.217 243.791,265.05 242.5,263C 243.317,261.51 244.15,260.01 245,258.5C 248.934,256.786 252.434,254.452 255.5,251.5C 256.167,249.5 256.833,247.5 257.5,245.5C 264.995,241.517 271.495,236.184 277,229.5C 278.979,225.044 281.813,221.21 285.5,218C 290.414,214.723 295.08,211.223 299.5,207.5C 298.914,202.508 299.58,197.508 301.5,192.5C 306.189,188.726 311.189,185.226 316.5,182C 317.257,180.488 318.257,179.154 319.5,178C 317.167,174.333 314.167,171.333 310.5,169C 308.465,168.401 306.799,168.901 305.5,170.5C 297.799,170.837 290.133,171.503 282.5,172.5C 282.5,171.5 282.5,170.5 282.5,169.5C 283.976,167.231 285.476,164.898 287,162.5C 289.326,160.934 291.492,159.268 293.5,157.5C 294.158,155.361 295.158,153.361 296.5,151.5C 307.181,149.306 309.848,143.473 304.5,134C 306.375,132.14 308.542,130.64 311,129.5C 317.1,133.115 323.433,133.449 330,130.5C 334.711,132.272 339.545,133.606 344.5,134.5C 341.313,138.206 340.813,142.206 343,146.5C 348.584,148.854 353.75,151.854 358.5,155.5C 362.526,153.818 366.526,152.152 370.5,150.5C 376.093,150.193 381.593,150.527 387,151.5C 387.995,150.934 388.828,150.267 389.5,149.5C 398.449,146.446 400.449,140.946 395.5,133C 399.165,132.323 402.499,133.156 405.5,135.5C 410.568,133.213 411.568,129.879 408.5,125.5C 410.078,124.702 411.744,124.202 413.5,124C 414.097,122.938 414.43,121.772 414.5,120.5C 413.526,118.382 412.693,116.382 412,114.5C 421.19,106.102 432.023,101.602 444.5,101C 443.671,102.816 442.837,104.649 442,106.5C 439.853,107.113 437.686,107.779 435.5,108.5C 439.59,112.711 444.59,115.044 450.5,115.5C 458.187,114.997 465.52,113.164 472.5,110C 475,106.833 477.5,103.667 480,100.5C 485.042,101.84 490.209,102.673 495.5,103C 495.977,105.899 496.977,108.566 498.5,111C 510.621,112.107 522.621,111.44 534.5,109C 537.377,106.613 540.044,103.946 542.5,101C 545.417,99.4725 548.417,98.1392 551.5,97C 552.167,96 552.833,95 553.5,94C 561.253,91.4162 568.92,91.4162 576.5,94C 577.311,97.1354 578.977,99.6354 581.5,101.5C 586.419,103.964 591.752,104.964 597.5,104.5C 600.833,104.333 604.167,104.167 607.5,104C 608.737,103.768 609.737,103.268 610.5,102.5C 613.211,94.9759 618.545,91.8092 626.5,93C 628.543,96.2534 630.71,99.4201 633,102.5C 637.343,101.164 639.176,98.1636 638.5,93.5C 638.428,91.4404 638.095,89.4404 637.5,87.5C 638.68,84.919 639.68,85.0857 640.5,88C 641.332,88.6877 641.998,88.521 642.5,87.5C 643.393,84.9159 643.726,82.2492 643.5,79.5C 641.784,79.3713 640.117,79.038 638.5,78.5C 633.787,77.5033 629.12,77.8366 624.5,79.5C 621.726,80.7226 619.059,82.2226 616.5,84C 614.833,84.6667 613.167,84.6667 611.5,84C 607.627,81.2932 603.627,78.7932 599.5,76.5C 600.58,73.8738 600.246,71.3738 598.5,69C 601.113,65.6 604.28,62.7666 608,60.5C 609.066,55.9611 610.899,51.7944 613.5,48C 619.261,46.9856 624.927,45.6522 630.5,44C 632.434,42.2713 632.434,40.2713 630.5,38C 639.568,34.6304 643.401,37.797 642,47.5C 644.281,51.2854 646.448,51.1187 648.5,47C 648.962,44.3231 649.796,41.8231 651,39.5C 653.771,42.1952 655.938,45.3619 657.5,49C 659.777,50.142 662.11,50.642 664.5,50.5C 664.709,51.086 665.043,51.586 665.5,52C 664.022,54.4574 662.689,56.9574 661.5,59.5C 661.668,61.1705 662.335,62.5039 663.5,63.5 Z"/></g>
<g><path style="opacity:1" fill="#fefffe" d="M 530.5,199.5 C 541.833,199.5 553.167,199.5 564.5,199.5C 564.5,243.5 564.5,287.5 564.5,331.5C 553.167,331.5 541.833,331.5 530.5,331.5C 530.5,287.5 530.5,243.5 530.5,199.5 Z"/></g>
<g><path style="opacity:1" fill="#fefffe" d="M 477.5,248.5 C 493.5,248.5 509.5,248.5 525.5,248.5C 525.5,259.5 525.5,270.5 525.5,281.5C 509.5,281.5 493.5,281.5 477.5,281.5C 477.5,270.5 477.5,259.5 477.5,248.5 Z"/></g>
<g><path style="opacity:1" fill="#fefffe" d="M 569.5,248.5 C 585.5,248.5 601.5,248.5 617.5,248.5C 617.5,259.5 617.5,270.5 617.5,281.5C 601.5,281.5 585.5,281.5 569.5,281.5C 569.5,270.5 569.5,259.5 569.5,248.5 Z"/></g>
</svg>
